# xmcd
#
# Track frame offsets:
#	150
#	13487
#	24355
#	35657
#	48045
#	60922
#	72567
#	86457
#	98075
#	110135
#	123335
#	133332
#	145915
#	156785
#	168402
#	181785
#	194185
#	205210
#	218330
#	229365
#
# Disc length: 3239 seconds
#
# Revision: 1
# Processed by: cddbd v1.5.1PL0 Copyright (c) Steve Scherf et al.
# Submitted via: audiograbber 1.82.02
#
DISCID=210ca514
DTITLE=Various Artist - Sounds of The Century Set Vol 1 CD 2 Of 4
DYEAR=1900
DGENRE=
TTITLE0=Tex Mortin - Frank And Johnny
TTITLE1=Buddy Bishop - I Want To Go Back To The Farm
TTITLE2=Dusty Rhodes - You Little Sweet Thing You
TTITLE3=Tim McNamara - A Girl Without a Sweatheart
TTITLE4=Reg Lindsey - If You've Got The Money
TTITLE5=Le Garde Twins - Sunset Yodel
TTITLE6=McKean Sisters - Moonrise Lullaby
TTITLE7=Tex Morton - Slipping Around
TTITLE8=Shirly Thomas - My Sunny Honey Queansland
TTITLE9=Tim McNamara - I'de Like to Caall You My Sweetheart
TTITLE10=Bar 80 Girls - Lazy Lack-a-daisy Melody
TTITLE11=Arthur Blanch - Shearin' Time
TTITLE12=Johnny Ashcroft - The Farmers Song
TTITLE13=Reg Lindsey - Hearts N Flowers
TTITLE14=Jones Brothers - My Old Pal
TTITLE15=Stan Staford - My Dog and Me
TTITLE16=Mike O'Malley - My Sweet Aussie Sweatheart
TTITLE17=Tim McNamara - That Aussie Girl Of Mine
TTITLE18=George Payne - The Roaming Yodeller
TTITLE19=Reg Lindsay - The Carranbean
EXTD=
EXTT0=
EXTT1=
EXTT2=
EXTT3=
EXTT4=
EXTT5=
EXTT6=
EXTT7=
EXTT8=
EXTT9=
EXTT10=
EXTT11=
EXTT12=
EXTT13=
EXTT14=
EXTT15=
EXTT16=
EXTT17=
EXTT18=
EXTT19=
PLAYORDER=
